<svg width="247" height="232" viewBox="0 0 247 232" fill="none" xmlns="http://www.w3.org/2000/svg">
<g clip-path="url(#clip0_723_1748)">
<path d="M94.5004 90.3218L38.7882 120.687L55.54 107.709L91.9616 87.8582L94.5004 90.3218Z" fill="#7AF42A"/>
<path d="M121.985 89.271L118.633 91.8665L105.002 78.639L111.396 78.9957L121.985 89.271Z" fill="#7AF42A"/>
<path d="M158.154 81.6045L157.874 86.6294L133.286 105.669L126.892 105.312L151.48 86.2727L151.76 81.2478L158.154 81.6045Z" fill="#7AF42A"/>
<path d="M128.176 70.2603L116.511 79.2812L110.124 78.9248L125.134 67.3081L128.176 70.2603Z" fill="#7AF42A"/>
<path d="M163.557 76.8719L163.277 81.8904L156.875 81.5332L157.155 76.5147L134.838 54.8516L141.24 55.2087L163.557 76.8719Z" fill="#7AF42A"/>
<path d="M87.4878 77.6619L49.1683 107.347L26 119.973L81.0937 77.3051L87.4878 77.6619Z" fill="#2AE8C4"/>
<path d="M115.316 104.667L108.922 104.31L91.9617 87.8582L95.8171 85.7513L98.3558 88.2149L115.316 104.667Z" fill="#2AE8C4"/>
<path d="M140.037 80.5938L125.02 92.2229L121.675 94.8124L118.633 91.8665L121.985 89.271L133.636 80.2366L140.037 80.5938Z" fill="#2AE8C4"/>
<path d="M123.255 54.2053L92.6035 77.9409L86.2093 77.5841L116.869 53.849C119.382 53.9892 121.286 54.0954 123.255 54.2053Z" fill="#2AE8C4"/>
<path d="M145.153 80.8791L138.751 80.522L128.176 70.2603L125.134 67.308L128.486 64.7061L145.153 80.8791Z" fill="#2AE8C4"/>
<path d="M151.76 81.2478L151.479 86.2727L126.892 105.312L115.316 104.667L98.3558 88.2149L95.817 85.7513L91.9617 87.8582L55.5401 107.709L32.4015 120.331L49.1683 107.347L87.4878 77.6618L105.002 78.639L118.633 91.8665L121.675 94.8124L125.02 92.2228L140.037 80.5937L151.76 81.2478Z" fill="#303030"/>
<path d="M157.155 76.5147L156.875 81.5332L145.153 80.8792L128.486 64.7062L125.134 67.3081L110.125 78.9248L92.6031 77.9472L123.255 54.2053L134.838 54.8516L157.155 76.5147Z" fill="#303030"/>
</g>
<g clip-path="url(#clip1_723_1748)">
<path d="M180.749 115.017L180.797 120.043L160.454 138.044L157.225 135.297L174.394 120.104L174.345 115.078L180.749 115.017Z" fill="#7AF42A"/>
<path d="M175.578 110.04L175.626 115.066L169.223 115.127L169.174 110.101L151.718 95.2397L154.886 92.431L175.578 110.04Z" fill="#7AF42A"/>
<path d="M145.203 130.577L150.814 135.359L147.639 138.167L138.799 130.639L156.194 115.252L162.598 115.19L145.203 130.577Z" fill="#2AE8C4"/>
<path d="M157.482 115.24L151.071 115.301L133.385 100.25L142.078 92.5537L145.314 95.3074L139.796 100.189L157.482 115.24Z" fill="#2AE8C4"/>
<path d="M174.345 115.078L174.394 120.104L154.05 138.106L150.814 135.359L145.203 130.577L162.598 115.191L174.345 115.078Z" fill="#303030"/>
<path d="M169.174 110.101L169.222 115.127L157.482 115.24L139.796 100.189L145.314 95.3074L148.489 92.4923L151.718 95.2397L169.174 110.101Z" fill="#303030"/>
</g>
<g clip-path="url(#clip2_723_1748)">
<path d="M113.184 130.884L104.483 138.581L101.255 135.834L106.773 130.946L89.0869 115.895L95.4981 115.834L113.184 130.884Z" fill="#7AF42A"/>
<path d="M107.762 100.496L90.3676 115.883L83.9638 115.944L101.358 100.557L95.7474 95.7762L98.9153 92.9675L107.762 100.496Z" fill="#7AF42A"/>
<path d="M94.851 135.895L91.6684 138.704L70.9836 121.095L70.9354 116.069L77.3466 116.008L77.3947 121.034L94.851 135.895Z" fill="#2AE8C4"/>
<path d="M89.3437 95.8439L72.1754 111.031L72.2236 116.057L65.8124 116.118L65.7643 111.092L86.1078 93.0902L89.3437 95.8439Z" fill="#2AE8C4"/>
<path d="M106.773 130.946L101.255 135.834L98.0796 138.642L77.3947 121.034L77.3466 116.008L89.0868 115.895L106.773 130.946Z" fill="#303030"/>
<path d="M101.358 100.557L83.9638 115.944L72.2236 116.057L72.1754 111.031L89.3437 95.8439L92.5189 93.0287L95.7475 95.7761L101.358 100.557Z" fill="#303030"/>
</g>
<g clip-path="url(#clip3_723_1748)">
<path d="M126.95 139.999L116.128 150.014L109.727 150.22L123.66 137.325L126.95 139.999Z" fill="#7AF42A"/>
<path d="M154.236 136.543L150.573 138.98L132.235 124.072L138.643 123.867L154.236 136.543Z" fill="#7AF42A"/>
<path d="M219.865 101L168.725 148.328L162.331 148.533L197.908 115.602L219.865 101Z" fill="#7AF42A"/>
<path d="M122.448 159.48L119.337 162.359L104.606 150.384L111 150.179L122.448 159.48Z" fill="#7AF42A"/>
<path d="M163.604 148.492L135.151 174.83L128.743 175.036L157.203 148.697L163.604 148.492Z" fill="#7AF42A"/>
<path d="M144.792 149.095L138.391 149.301L126.95 139.999L123.66 137.325L126.771 134.439L144.792 149.095Z" fill="#2AE8C4"/>
<path d="M207.056 101.411L191.485 115.821L156.973 138.775L153.31 141.205L150.573 138.98L154.236 136.543L207.056 101.411Z" fill="#2AE8C4"/>
<path d="M120.647 124.444L97.8236 145.566L97.9849 150.596L91.5767 150.802L91.4154 145.772L114.247 124.649L120.647 124.444Z" fill="#2AE8C4"/>
<path d="M139.671 149.26L125.738 162.154L122.626 165.033L119.337 162.359L122.448 159.48L133.263 149.465L139.671 149.26Z" fill="#2AE8C4"/>
<path d="M117.163 175.407L110.755 175.612L86.6247 155.996L86.4634 150.966L92.8642 150.76L93.0254 155.79L117.163 175.407Z" fill="#2AE8C4"/>
<path d="M213.464 101.205L197.908 115.602L162.331 148.533L144.791 149.095L126.771 134.439L123.66 137.325L109.727 150.22L97.9848 150.596L97.8235 145.566L120.647 124.444L132.235 124.072L150.573 138.98L153.31 141.205L156.973 138.775L191.485 115.821L213.464 101.205Z" fill="#303030"/>
<path d="M157.203 148.697L128.743 175.036L117.163 175.407L93.0255 155.79L92.8643 150.76L104.606 150.384L119.337 162.359L122.626 165.033L125.738 162.154L139.671 149.26L157.203 148.697Z" fill="#303030"/>
</g>
<defs>
<clipPath id="clip0_723_1748">
<rect width="134.942" height="71.0838" fill="white" transform="translate(29.9598 49) rotate(3.19343)"/>
</clipPath>
<clipPath id="clip1_723_1748">
<rect width="47.2209" height="45.6648" fill="white" transform="translate(133.312 92.6378) rotate(-0.549113)"/>
</clipPath>
<clipPath id="clip2_723_1748">
<rect width="47.2282" height="45.6648" fill="white" transform="translate(65.5936 93.2868) rotate(-0.549113)"/>
</clipPath>
<clipPath id="clip3_723_1748">
<rect width="134.935" height="71.0774" fill="white" transform="translate(85 105.324) rotate(-1.83649)"/>
</clipPath>
</defs>
</svg>
